<svg xmlns="http://www.w3.org/2000/svg" xmlns:xlink="http://www.w3.org/1999/xlink" enable-background="new 0 0 226.777 226.777" height="226.777" version="1.1" width="226.777" xml:space="preserve" style=""><rect id="backgroundrect" width="100%" height="100%" x="0" y="0" fill="none" stroke="none"/><g class="currentLayer" style=""><title>Layer 1</title><path fill="#ffffff" fill-opacity="1" stroke="#ffffff" stroke-opacity="1" stroke-width="2" stroke-dasharray="none" stroke-linejoin="round" stroke-linecap="butt" stroke-dashoffset="" fill-rule="nonzero" opacity="1" marker-start="" marker-mid="" marker-end="" d="M33.29032254219055,115.79032254219055 C33.29032254219055,71.31518442064359 70.21021204495298,35.29032254219055 115.79032254219055,35.29032254219055 C161.37043303942812,35.29032254219055 198.29032254219055,71.31518442064359 198.29032254219055,115.79032254219055 C198.29032254219055,160.2654606637375 161.37043303942812,196.29032254219055 115.79032254219055,196.29032254219055 C70.21021204495298,196.29032254219055 33.29032254219055,160.2654606637375 33.29032254219055,115.79032254219055 z" id="svg_2" class=""/><path d="M113.313,0C50.732,0,0,50.732,0,113.313s50.732,113.313,113.313,113.313s113.313-50.732,113.313-113.313  S175.894,0,113.313,0z M111.844,188.386l-44.78-63.344l44.78,26.218V188.386z M111.844,141.976l-45.083-26.408l45.083-19.748  V141.976z M111.844,92.647l-43.631,19.11l43.631-73.306V92.647z M114.75,38.429l44.244,73.6L114.75,92.647V38.429z M114.75,188.386  V151.26l44.78-26.218L114.75,188.386z M114.75,141.977V95.821l45.116,19.762L114.75,141.977z" fill="#7F7F7F" id="svg_1" class="selected"/><path fill="#ffffff" fill-opacity="1" stroke="#ffffff" stroke-opacity="1" stroke-width="2" stroke-dasharray="none" stroke-linejoin="round" stroke-linecap="butt" stroke-dashoffset="" fill-rule="nonzero" opacity="1" marker-start="" marker-mid="" marker-end="" d="M163,111 C163,111 163,111 163,111 C163,111 163,111 163,111 C163,111 163,111 163,111 C163,111 163,111 163,111 Z" id="svg_4"/></g></svg>